<svg width="883" height="1500" viewBox="0 0 883 1500" fill="none" xmlns="http://www.w3.org/2000/svg">
<g id="newsvg" clip-path="url(#clip0_0_1)">
<path id="Vector" d="M723 546C723 546 775.522 521.822 757.071 505.055C738.62 488.288 723 546 723 546Z" fill="#F86D70"/>
<path id="Vector_2" d="M723.15 553.359C723.15 553.359 731.247 442.357 685.559 458.014C639.871 473.672 723.15 553.359 723.15 553.359Z" fill="#F86D70"/>
<path id="Vector_3" d="M748.014 544L746.336 565.966L746.31 566.345C746.311 569.775 746.138 573.203 745.791 576.616C743.514 599.021 733.729 609.232 722.294 609.232C710.858 609.232 701.5 599.021 699.223 576.616C698.876 573.203 698.702 569.775 698.704 566.345L698.691 566.039L698.684 565.966L697 544H748.014Z" fill="#6C63FF"/>
<path id="Vector_4" d="M592 259.587V221H598V259.587C599.721 260.283 601.146 261.556 602.032 263.188C602.917 264.82 603.207 266.709 602.853 268.531C602.498 270.354 601.521 271.996 600.088 273.177C598.655 274.357 596.857 275.003 595 275.003C593.143 275.003 591.345 274.357 589.912 273.177C588.479 271.996 587.502 270.354 587.147 268.531C586.793 266.709 587.083 264.82 587.968 263.188C588.854 261.556 590.279 260.283 592 259.587Z" fill="#F86D70"/>
<path id="Vector_5" d="M576 582.374H617V224H633V582.374H674C678.859 582.374 683.67 583.062 688.159 584.401C692.648 585.739 696.727 587.7 700.163 590.172C703.599 592.645 706.324 595.58 708.184 598.811C710.043 602.041 711 605.503 711 609V609H539V609C539 605.503 539.957 602.041 541.816 598.811C543.676 595.58 546.401 592.645 549.837 590.172C553.273 587.7 557.352 585.739 561.841 584.401C566.33 583.062 571.141 582.374 576 582.374V582.374Z" fill="#F2F2F2"/>
<path id="Vector_6" d="M704 224H552L561.295 126.382C561.635 123.016 563.461 119.879 566.416 117.587C569.37 115.296 573.237 114.016 577.258 114H678.742C682.763 114.016 686.63 115.296 689.584 117.587C692.539 119.879 694.365 123.016 694.705 126.382L704 224Z" fill="#F86D70"/>
<path id="Vector_7" d="M471.896 378.52C473.512 378.251 475.166 378.306 476.761 378.682C478.356 379.057 479.86 379.746 481.187 380.708C482.514 381.67 483.636 382.886 484.488 384.285C485.341 385.684 485.907 387.239 486.154 388.859L490.992 420.607L474.532 424.973L462.471 395.392C461.77 393.673 461.465 391.819 461.579 389.966C461.692 388.113 462.221 386.31 463.126 384.69C464.031 383.069 465.29 381.673 466.808 380.605C468.326 379.537 470.065 378.824 471.896 378.52Z" fill="#FFB6B6"/>
<path id="Vector_8" d="M472.204 420.548C463.069 456.85 467 490.054 501.016 516.124C541.816 504.878 568.951 477.743 585.507 438.306C586.537 435.854 587.058 433.219 587.041 430.56C587.024 427.901 586.468 425.272 585.407 422.834C584.346 420.395 582.802 418.197 580.868 416.372C578.934 414.547 576.65 413.132 574.154 412.214V412.214C570.404 410.835 566.324 410.631 562.455 411.628C558.586 412.625 555.112 414.777 552.496 417.796L512.464 464L493.685 417.411L472.204 420.548Z" fill="#F86D70"/>
<path id="Vector_9" d="M263.163 611.007C300.416 609.028 323.558 596.237 329.163 570.007L323.163 559.007L254.469 590.301C252.734 591.091 251.274 592.379 250.274 594.001C249.273 595.623 248.778 597.506 248.85 599.41C248.923 601.315 249.56 603.155 250.68 604.696C251.801 606.237 253.355 607.411 255.144 608.067L263.163 611.007Z" fill="#FFB6B6"/>
<path id="Vector_10" d="M291.948 611.27C311.304 610.683 329.919 610.866 347.557 612.059C350.651 612.271 353.703 611.254 356.052 609.229C358.401 607.204 359.857 604.335 360.104 601.244L361.163 588.007L376.163 564.007L363.163 551.007C341.316 572.766 317.357 591.042 288.9 601.906C287.986 602.533 287.299 603.439 286.942 604.488C286.585 605.538 286.578 606.675 286.921 607.729C287.264 608.783 287.939 609.697 288.846 610.335C289.752 610.974 290.84 611.301 291.948 611.27V611.27Z" fill="#FFB6B6"/>
<path id="Vector_11" d="M397.163 517.007C421.88 561.233 446.188 591.047 478.163 607.007C517.502 619.991 546.253 602.789 568.663 567.507L503.663 524.507L494.163 534.007L408.065 468.489C405.962 466.497 403.158 465.416 400.263 465.481C397.367 465.545 394.614 466.75 392.601 468.832L319.163 559.007L328.163 574.007L397.163 517.007Z" fill="#3F3D56"/>
<path id="Vector_12" d="M375.163 569.007L409.163 517.007L401.163 502.007L356.163 549.007L375.163 569.007Z" fill="#3F3D56"/>
<path id="Vector_13" d="M571.163 403.007C552.385 403.007 537.163 387.785 537.163 369.007C537.163 350.229 552.385 335.007 571.163 335.007C589.941 335.007 605.163 350.229 605.163 369.007C605.163 387.785 589.941 403.007 571.163 403.007Z" fill="#FFB6B6"/>
<path id="Vector_14" d="M562.163 432.007L600.163 419.007C594.54 410.071 592.075 399.508 593.163 389.007H562.163C563.926 404.265 564.19 418.737 562.163 432.007Z" fill="#FFB6B6"/>
<path id="Vector_15" d="M481.163 523.007C486.86 525.346 487.276 532.93 492.663 535.507C518.703 547.966 546.252 558.075 565.163 576.007C609.356 545.997 650.318 452.789 597.163 412.007C579.019 422.624 562.812 430.222 563.163 412.007L481.163 523.007Z" fill="#F86D70"/>
<path id="Vector_16" opacity="0.2" d="M504.163 483.007L522.663 476.507L559.163 505.007L575.525 446.104C576.66 442.018 578.499 444.089 581.139 446.927C583.891 444.38 587.314 442.672 591.005 442.006C594.695 441.341 598.499 441.744 601.968 443.169C605.437 444.594 608.426 446.981 610.583 450.049C612.74 453.117 613.975 456.737 614.142 460.483C616.088 503.21 603.203 539.357 571.163 567.007C529.256 558.034 511.471 529.72 504.163 493.007L506.144 491.686C505.414 488.849 504.754 485.956 504.163 483.007Z" fill="black"/>
<path id="Vector_17" d="M566.588 324.281C555.373 326.843 542.608 330.474 541.892 333.848C530.356 336.755 521.648 343.719 519.87 354.335C519.721 355.252 519.776 356.191 520.029 357.085C520.283 357.98 520.729 358.807 521.338 359.51C521.946 360.213 522.701 360.774 523.549 361.154C524.397 361.534 525.319 361.723 526.248 361.708C532.522 361.627 541.941 361.026 548.16 358.429C566.227 370.07 569.259 400.347 561.369 420.956L573.785 419.818L586.63 382.216L589.911 418.34L618.244 414.594L614.594 368.529C613.473 357.672 609.778 347.239 603.816 338.096C603.197 337.178 602.52 336.3 601.789 335.469C597.478 330.599 591.93 326.988 585.732 325.018C579.534 323.048 572.919 322.793 566.588 324.281V324.281Z" fill="#2F2E41"/>
<path id="Vector_18" d="M502.666 438.428L471.549 475.011L424.873 419.925L456.411 381.659L502.666 438.428Z" fill="#3F3D56"/>
<path id="Vector_19" d="M432.863 421.187L469.867 390.91C467.765 385.864 457.673 387.546 457.673 387.546L428.706 416.912C427.698 417.935 426.832 419.09 426.135 420.346V420.346L432.863 421.187Z" fill="#F2F2F2"/>
<path id="Vector_20" d="M431.181 419.084L473.231 386.285L519.907 456.93L475.965 486.575C471.76 488.257 467.554 485.314 467.554 485.314L424.663 419.715L431.181 419.084Z" fill="#3F3D56"/>
<path id="Vector_21" d="M467.988 396.522L468.385 397.076L441.471 416.416L441.073 415.862L467.988 396.522Z" fill="#6C63FF"/>
<path id="Vector_22" d="M440.716 423.101L476.039 476.505L475.47 476.881L440.148 423.477L440.716 423.101Z" fill="#6C63FF"/>
<path id="Vector_23" d="M508.348 457.071L508.752 457.62L480.165 478.654L479.761 478.105L508.348 457.071Z" fill="#6C63FF"/>
<path id="Vector_24" d="M473.091 397.444L509.674 450.007L509.115 450.396L472.531 397.833L473.091 397.444Z" fill="#6C63FF"/>
<path id="Vector_25" d="M461.79 387.13L462.074 387.439L428.8 417.978L428.516 417.668L461.79 387.13Z" fill="#B3B3B3"/>
<path id="Vector_26" d="M464.562 387.391L464.84 387.707L430.064 418.407L429.786 418.092L464.562 387.391Z" fill="#B3B3B3"/>
<path id="Vector_27" d="M466.737 388.003L467.007 388.326L430.906 418.418L430.637 418.095L466.737 388.003Z" fill="#B3B3B3"/>
<path id="Vector_28" d="M485.87 449.168C487.215 448.232 488.732 447.573 490.334 447.228C491.936 446.884 493.591 446.861 495.202 447.162C496.812 447.462 498.348 448.08 499.718 448.978C501.088 449.877 502.266 451.039 503.183 452.397L521.163 479.007L508.163 490.007L484.587 468.451C483.217 467.199 482.146 465.654 481.455 463.932C480.763 462.209 480.468 460.353 480.591 458.501C480.714 456.649 481.253 454.848 482.166 453.233C483.08 451.617 484.346 450.228 485.87 449.168V449.168Z" fill="#FFB6B6"/>
<path id="Vector_29" d="M504.163 487.007C511.471 523.721 529.256 552.034 571.163 561.007C603.203 533.357 616.088 497.21 614.141 454.484C614.02 451.827 613.362 449.223 612.207 446.827C611.051 444.432 609.423 442.296 607.419 440.548C605.415 438.799 603.078 437.475 600.548 436.655C598.018 435.835 595.348 435.536 592.7 435.776V435.776C588.721 436.138 584.947 437.703 581.879 440.262C578.811 442.821 576.594 446.254 575.525 450.104L559.163 509.007L522.226 474.965L504.163 487.007Z" fill="#F86D70"/>
<path id="Vector_30" d="M158.663 117.658C157.765 117.658 157.037 116.929 157.037 116.031C157.037 115.133 157.765 114.404 158.663 114.404C159.562 114.404 160.29 115.133 160.29 116.031C160.29 116.929 159.562 117.658 158.663 117.658Z" fill="#E6E6E6"/>
<path id="Vector_31" d="M537.029 609H710.951V615H536.951L537.029 609Z" fill="#3F3D56"/>
<path id="Vector_32" d="M725.633 266.629C737.822 277.44 739.384 295.582 729.123 307.151C718.861 318.72 700.662 319.334 688.473 308.523C667.9 290.275 702.739 305.569 713 294C723.261 282.431 713.445 255.818 725.633 266.629Z" fill="white"/>
<path id="Vector_33" d="M678 257L678.001 257.041L678.003 257.214C678.002 259.146 678.024 261.077 678.068 263H683.931C683.975 261.077 683.997 259.146 683.997 257.214L684 257H678Z" fill="#808080"/>
<path id="Vector_34" d="M667 280L667.001 280.041L667.003 280.214C667.002 282.146 667.024 284.077 667.068 286H672.931C672.975 284.077 672.997 282.146 672.997 280.214L673 280H667Z" fill="#808080"/>
<path id="Vector_35" d="M695 274L695.001 274.041L695.003 274.214C695.002 276.146 695.024 278.077 695.068 280H700.931C700.975 278.077 700.997 276.146 700.997 274.214L701 274H695Z" fill="#808080"/>
<path id="Vector_36" d="M700 244L700.001 244.041L700.003 244.214C700.002 246.146 700.024 248.077 700.068 250H705.931C705.975 248.077 705.997 246.146 705.997 244.214L706 244H700Z" fill="#808080"/>
</g>
<path id="Vector_37" d="M722 1074L722.001 1074.04L722.003 1074.21C722.002 1076.15 722.024 1078.08 722.068 1080H727.931C727.975 1078.08 727.997 1076.15 727.997 1074.21L728 1074H722Z" fill="#808080"/>
<path id="Vector_38" d="M820 883L820.001 883.041L820.003 883.214C820.002 885.146 820.024 887.077 820.068 889H825.931C825.975 887.077 825.997 885.146 825.997 883.214L826 883H820Z" fill="#808080"/>
<path id="Vector_39" d="M560.8 1074C560.323 1074 559.865 1074.15 559.528 1074.4C559.19 1074.66 559.001 1075.01 559 1075.37V1164.63C559.001 1164.99 559.19 1165.34 559.528 1165.6C559.865 1165.85 560.323 1166 560.8 1166H701.2C701.677 1166 702.135 1165.85 702.472 1165.6C702.81 1165.34 702.999 1164.99 703 1164.63V1075.37C702.999 1075.01 702.81 1074.66 702.472 1074.4C702.135 1074.15 701.677 1074 701.2 1074L560.8 1074Z" fill="black"/>
<path id="Vector_40" d="M359.986 1056.86C359.986 1056.86 468.143 996.962 426.137 964.138C384.131 931.315 359.986 1056.86 359.986 1056.86Z" fill="#F86D70"/>
<path id="Vector_41" d="M235.458 1265.56C235.458 1265.56 275.705 1092.9 200.399 1106.04C125.092 1119.18 235.458 1265.56 235.458 1265.56Z" fill="#F86D70"/>
<path id="Vector_42" d="M271.183 1259.14L269.017 1287.52L268.982 1288.01C268.984 1292.44 268.761 1296.86 268.312 1301.27C265.371 1330.21 252.733 1343.4 237.963 1343.4C223.192 1343.4 211.104 1330.21 208.164 1301.27C207.715 1296.86 207.491 1292.44 207.493 1288.01L207.476 1287.61L207.468 1287.52L205.292 1259.14H271.183Z" fill="#2F2E41"/>
<path id="Vector_43" d="M407.5 1434C407.224 1434 407 1432.66 407 1431C407 1429.34 407.224 1428 407.5 1428C407.776 1428 408 1429.34 408 1431C408 1432.66 407.776 1434 407.5 1434Z" fill="#F86D70"/>
<path id="Vector_44" d="M503.313 1086.39C502.029 1083.04 500.158 1080.02 497.815 1077.52C495.471 1075.02 492.704 1073.08 489.682 1071.84C486.54 1070.46 483.172 1069.87 479.81 1070.11C476.448 1070.34 473.17 1071.4 470.202 1073.22C463.233 1077.42 457.661 1084.04 450.583 1088.06C443.701 1091.94 436.128 1093.97 428.447 1093.99C419.751 1094.07 411.19 1091.54 403.625 1086.66C403.331 1086.45 403.121 1086.12 403.038 1085.74C402.956 1085.35 403.008 1084.95 403.183 1084.61C403.359 1084.26 403.644 1084.01 403.979 1083.91C404.313 1083.8 404.671 1083.85 404.977 1084.03C411.834 1088.4 419.534 1090.78 427.393 1090.94C435.251 1091.1 443.023 1089.05 450.016 1084.97C457.117 1080.74 462.744 1073.9 469.977 1069.94C473.048 1068.24 476.384 1067.26 479.793 1067.04C483.201 1066.82 486.613 1067.38 489.831 1068.67C493.409 1070.03 496.691 1072.25 499.461 1075.16C502.23 1078.08 504.424 1081.63 505.896 1085.58C506.546 1087.39 503.956 1088.18 503.313 1086.39V1086.39Z" fill="#F86D70"/>
<path id="Vector_45" d="M504.313 1121.17C489.321 1117.99 473.769 1118.05 458.8 1121.32C445.503 1124.25 431.776 1129.52 418.066 1125.59C411.941 1123.83 406.327 1120.32 403.18 1114.92C402.338 1113.47 404.671 1112.18 405.513 1113.63C411.438 1123.8 425.318 1125.52 436.281 1123.85C443.606 1122.73 450.666 1120.49 457.876 1118.89C473.377 1115.44 489.5 1115.38 505.031 1118.7C506.728 1119.06 506.01 1121.53 504.313 1121.17V1121.17Z" fill="#F86D70"/>
<path id="Vector_46" d="M504.301 1025.23C489.894 1022.19 475.137 1022.84 460.94 1027.15C447.677 1031.18 434.713 1040.4 420.689 1038.81C414.196 1038.07 407.768 1035.11 403.357 1028.94C402.204 1027.33 404.112 1024.94 405.272 1026.56C409.077 1031.88 414.557 1034.64 420.181 1035.39C426.663 1036.24 433.032 1034.58 439.201 1032.21C446.03 1029.58 452.664 1026.26 459.608 1024.09C474.461 1019.46 489.931 1018.74 505.021 1021.99C506.735 1022.35 506.009 1025.59 504.301 1025.23V1025.23Z" fill="#F86D70"/>
<path id="Vector_47" d="M426 1340C426.53 1340 427.039 1340.21 427.414 1340.59C427.789 1340.96 427.999 1341.47 428 1342V1498C427.999 1498.53 427.789 1499.04 427.414 1499.41C427.039 1499.79 426.53 1500 426 1500H296C295.47 1500 294.961 1499.79 294.586 1499.41C294.211 1499.04 294.001 1498.53 294 1498V1342C294.001 1341.47 294.211 1340.96 294.586 1340.59C294.961 1340.21 295.47 1340 296 1340H426Z" fill="#E6E6E6"/>
<path id="Vector_48" d="M463 1020.5H499.373C500.252 1020.5 501.116 1020.27 501.878 1019.84C502.64 1019.4 503.273 1018.77 503.713 1018.01C504.152 1017.24 504.383 1016.38 504.381 1015.5C504.379 1014.62 504.145 1013.76 503.703 1013L485.516 981.5C485.502 981.474 485.486 981.448 485.471 981.422C485.074 980.752 484.523 980.186 483.865 979.769C483.207 979.352 482.46 979.097 481.684 979.024L481.658 979.022C481.503 979.007 481.345 979 481.186 979C480.308 978.995 479.443 979.224 478.682 979.663C477.921 980.102 477.291 980.736 476.856 981.5L458.67 1013C458.231 1013.76 458 1014.62 458 1015.5C458 1016.38 458.231 1017.24 458.67 1018C459.109 1018.76 459.74 1019.39 460.5 1019.83C461.26 1020.27 462.122 1020.5 463 1020.5V1020.5ZM500.377 1015.5C500.375 1015.67 500.328 1015.85 500.239 1016C500.153 1016.15 500.027 1016.28 499.874 1016.37C499.722 1016.46 499.549 1016.5 499.373 1016.5H463C462.824 1016.5 462.651 1016.46 462.498 1016.37C462.346 1016.28 462.22 1016.15 462.134 1016C462.045 1015.85 461.998 1015.67 461.996 1015.5C461.997 1015.32 462.045 1015.15 462.134 1015L480.32 983.5C480.408 983.348 480.534 983.222 480.686 983.134C480.838 983.046 481.011 983 481.186 983C481.362 983 481.534 983.046 481.687 983.134C481.839 983.222 481.965 983.348 482.053 983.5L500.239 1015C500.328 1015.15 500.376 1015.32 500.377 1015.5V1015.5Z" fill="#E6E6E6"/>
<path id="Vector_49" d="M536.254 938.254V999.746H613.269V938.254H536.254Z" fill="white"/>
<path id="Vector_50" d="M584.621 931.5H564.901C564.424 931.502 563.956 931.378 563.543 931.14C563.129 930.903 562.786 930.56 562.548 930.148C562.31 929.735 562.185 929.267 562.186 928.79C562.186 928.313 562.313 927.846 562.553 927.434L572.413 910.355L572.438 910.313C572.654 909.95 572.952 909.643 573.309 909.417C573.665 909.191 574.071 909.053 574.491 909.013L574.505 909.012C574.59 909.004 574.675 909 574.761 909C575.238 908.997 575.706 909.121 576.119 909.359C576.531 909.598 576.873 909.941 577.109 910.355L586.969 927.434C587.207 927.846 587.332 928.313 587.332 928.789C587.332 929.265 587.207 929.732 586.969 930.145C586.731 930.557 586.389 930.899 585.977 931.137C585.565 931.375 585.097 931.5 584.621 931.5V931.5ZM564.357 928.787C564.357 928.883 564.383 928.977 564.431 929.06C564.478 929.143 564.546 929.212 564.629 929.26C564.712 929.308 564.806 929.332 564.901 929.331H584.621C584.717 929.332 584.811 929.308 584.893 929.26C584.976 929.212 585.044 929.143 585.091 929.06C585.139 928.977 585.165 928.883 585.166 928.787C585.165 928.692 585.139 928.6 585.091 928.518L575.231 911.44C575.183 911.357 575.115 911.289 575.032 911.241C574.95 911.194 574.856 911.169 574.761 911.169C574.666 911.169 574.572 911.194 574.49 911.241C574.408 911.289 574.339 911.357 574.291 911.44L564.431 928.518C564.383 928.599 564.357 928.692 564.357 928.787V928.787Z" fill="#E6E6E6"/>
<path id="Vector_51" d="M549.665 937.241C556.562 944.304 561.32 953.174 563.387 962.828C564.977 970.507 564.798 978.447 562.863 986.046C560.928 993.646 557.288 1000.71 552.22 1006.69C550.977 1008.15 553.089 1010.28 554.341 1008.81C561.246 1000.67 565.656 990.718 567.039 980.137C568.048 971.969 567.2 963.679 564.559 955.885C561.918 948.09 557.552 940.992 551.786 935.119C550.433 933.738 548.312 935.86 549.665 937.241Z" fill="#E6E6E6"/>
<path id="Vector_52" d="M589.621 930.777C580.427 937.521 575.28 948.405 574.556 959.663C573.802 971.376 578.269 982.688 585.463 991.783C589.66 997.02 594.674 1001.55 600.312 1005.19C601.932 1006.25 603.437 1003.65 601.826 1002.6C592.641 996.587 584.782 988.05 580.608 977.805C578.574 972.939 577.519 967.72 577.504 962.445C577.489 957.171 578.515 951.945 580.522 947.068C582.769 941.633 586.435 936.902 591.135 933.368C592.676 932.238 591.181 929.633 589.621 930.777V930.777Z" fill="#E6E6E6"/>
<path id="Vector_53" d="M450.652 1089L450.646 1089.07L450.632 1089.38C450.634 1092.81 450.461 1096.24 450.113 1099.65H403.546C403.198 1096.24 403.025 1092.81 403.027 1089.38L403 1089H450.652Z" fill="white"/>
<defs>
<clipPath id="clip0_0_1">
<rect width="882.951" height="612.148" fill="white" transform="matrix(-1 0 0 1 882.951 0)"/>
</clipPath>
</defs>
</svg>
