<svg width="670" height="512" viewBox="0 0 670 512" fill="none" xmlns="http://www.w3.org/2000/svg">
<g id="svg" clip-path="url(#clip0_1_2)">
<path id="Vector" d="M632.544 457.294L633.446 437.535C642.85 432.638 653.338 430.052 664 430C649.326 441.688 651.159 464.219 641.211 479.937C638.069 484.816 633.841 488.943 628.839 492.014C623.838 495.085 618.191 497.02 612.317 497.675L600.037 505C598.352 495.848 598.724 486.45 601.126 477.451C603.529 468.453 607.905 460.069 613.953 452.877C617.388 448.875 621.326 445.311 625.674 442.268C628.615 449.823 632.544 457.294 632.544 457.294Z" fill="#F86D70"/>
<path id="Vector_2" d="M446.636 509.735C440.392 509.298 438.764 510.509 429.318 509.735H412L414.253 469L441.516 479.738L577 483.007L576.921 483.233C576.859 483.407 570.844 500.701 575.546 507.25L575.741 507.521L575.36 507.525L451.075 508.645C449.718 508.657 447.982 509.829 446.636 509.735Z" fill="#F2F2F2"/>
<path id="Vector_3" d="M453.321 510.92C441.27 510.077 428.792 514.681 418.378 509.483L410.053 509.979L410.029 509.91C409.965 509.721 406.032 479.31 413.982 467.519L414.332 467L414.605 469.793L411.984 507.676L417.793 505.771C431.901 512.297 448.679 507.987 464.826 507.927L574.713 507.528C577.015 507.52 578.933 509.066 578.994 510.974L579 511.161L459.958 511.152C457.738 511.152 455.525 511.074 453.321 510.92Z" fill="#E6E6E6"/>
<path id="Vector_4" d="M568.969 492L445.336 489.53L445.21 489.483L416 478.48L416.552 477L445.636 487.956L569 490.419L568.969 492Z" fill="#E6E6E6"/>
<path id="Vector_5" d="M568.968 498L444.528 495.53L444.401 495.483L415 484.48L415.556 483L444.83 493.956L569 496.419L568.968 498Z" fill="#E6E6E6"/>
<path id="Vector_6" d="M567.969 505L444.336 502.53L444.211 502.482L415 491.48L415.552 490L444.637 500.956L568 503.42L567.969 505Z" fill="#E6E6E6"/>
<path id="Vector_7" d="M454.394 483.514C442.929 482.769 431.75 479.734 421.571 474.602L413 470.228L413.224 468.065C413.286 467.748 413.469 467.464 413.736 467.268C414.002 467.072 414.335 466.978 414.67 467.004L415.426 467.013L530.748 468.646C538.295 468.736 545.774 470.043 552.873 472.51L578 481.288L577.987 481.416C577.776 483.453 575.641 485.028 573.126 485L459.531 483.719C457.813 483.699 456.1 483.631 454.394 483.514Z" fill="#E6E6E6"/>
<path id="Vector_8" d="M577.979 482L577.953 481.998L439.126 478.86L439.03 478.817L414 467.382L414.254 467L415.015 467.009L439.358 478.136L576.898 481.242L578 481.268L577.979 482Z" fill="#E6E6E6"/>
<path id="Vector_9" d="M469.95 467.638L468.207 467.613L428.864 467.026L427 467C435.989 476.65 455.866 479.064 485 475.326L469.95 467.638Z" fill="#19D5BC"/>
<path id="Vector_10" d="M581.597 241.341L584 246.759L580.072 266L540 260.601L540.32 237.138L541.124 232L581.597 241.341Z" fill="#FFB6B6"/>
<path id="Vector_11" d="M603 496H593.515L589 462H603V496Z" fill="#FFB6B6"/>
<path id="Vector_12" d="M576 507.26C576.001 508.252 576.4 509.203 577.109 509.904C577.818 510.605 578.779 510.999 579.782 511H596.622L599.525 505.074L600.653 511H607L605.216 489.834L602.33 489.667L592.636 489.097L591.074 489V494.996L577.633 504.179C577.129 504.523 576.717 504.984 576.433 505.52C576.148 506.057 576 506.654 576 507.26Z" fill="#2F2E41"/>
<path id="Vector_13" d="M520.37 457H511.322L506 406.988L523 406L520.37 457Z" fill="#FFB6B6"/>
<path id="Vector_14" d="M494 468.26C494.001 469.252 494.4 470.203 495.109 470.904C495.818 471.605 496.779 471.999 497.782 472H514.622L517.525 466.074L518.653 472H525L523.216 450.834L520.641 450.685L510.778 450.097L509.074 450V455.996L495.633 465.179C495.129 465.523 494.717 465.984 494.433 466.52C494.148 467.057 494 467.654 494 468.26V468.26Z" fill="#2F2E41"/>
<path id="Vector_15" d="M606.584 466.37H606.55L604.839 411.44C605.946 409.338 606.508 406.998 606.475 404.63C606.441 402.262 605.813 399.939 604.647 397.867L604.403 397.431L605.038 394.532C605.853 390.808 605.479 386.927 603.966 383.421L602.37 332.181C608.072 295.798 580.898 272.07 580.898 272.07L583.395 253L539.442 253.984L540.19 272.07L531.45 301.633C526.851 345.751 495.896 373.481 500.601 415.67C500.611 415.792 500.593 415.913 500.548 416.027C500.07 417.456 499.902 418.968 500.054 420.465C500.207 421.962 500.676 423.411 501.431 424.718C501.627 425.052 501.762 425.417 501.829 425.797C502.799 433.193 502.925 423.837 504.209 431.168L503.959 431.292C503.059 431.598 502.673 432.826 503.097 434.034C503.521 435.243 504.594 435.974 505.494 435.668L528.99 435.916C529.89 435.61 530.276 434.382 529.852 433.174C529.429 431.965 528.356 431.234 527.456 431.54L525.994 432.268L528.439 424.39L529.297 423.602C529.707 423.224 530.026 422.76 530.229 422.244C530.432 421.728 530.513 421.174 530.468 420.623C530.422 420.071 530.251 419.537 529.966 419.06C529.681 418.583 529.29 418.176 528.823 417.869L531.259 405.068L530.913 395.386L531.626 384.402L562.456 340.419L574.929 401.173L587.669 466.982C587.372 467.246 587.149 467.58 587.021 467.954C586.893 468.327 586.865 468.727 586.939 469.114C587.056 469.655 587.361 470.139 587.801 470.483C588.241 470.827 588.789 471.01 589.35 471H606.646C607.009 470.999 607.367 470.916 607.692 470.758C608.016 470.599 608.3 470.369 608.519 470.084C608.739 469.8 608.889 469.47 608.957 469.119C609.026 468.769 609.012 468.407 608.915 468.063C608.769 467.568 608.462 467.134 608.041 466.828C607.619 466.522 607.108 466.361 606.584 466.37V466.37Z" fill="#3F3D56"/>
<path id="Vector_16" d="M590 152.817C590.001 156.284 589.119 159.697 587.429 162.758C585.74 165.819 583.296 168.434 580.312 170.374C577.327 172.313 573.894 173.518 570.313 173.883C566.731 174.247 563.112 173.76 559.772 172.463C556.432 171.167 553.474 169.102 551.157 166.448C548.841 163.795 547.236 160.634 546.484 157.244C545.733 153.855 545.857 150.339 546.847 147.007C547.836 143.674 549.661 140.626 552.16 138.131L552.266 138.029C552.442 137.851 552.618 137.673 552.802 137.504C552.804 137.504 552.805 137.504 552.806 137.503C552.807 137.503 552.808 137.502 552.809 137.501C552.809 137.501 552.81 137.5 552.811 137.499C552.811 137.498 552.811 137.496 552.811 137.495C553.063 137.318 553.296 137.117 553.506 136.894C556.476 132.9 559.844 129.55 568 131.643C579.743 134.655 590 141.121 590 152.817Z" fill="#2F2E41"/>
<path id="Vector_17" d="M471.007 138.6C470.958 139.745 471.165 140.886 471.614 141.945C472.064 143.003 472.745 143.951 473.609 144.724C474.473 145.496 475.499 146.073 476.616 146.415C477.732 146.756 478.912 146.854 480.071 146.701L536.396 192L545 177.181L486.928 137.313C486.536 135.422 485.45 133.738 483.875 132.579C482.301 131.421 480.347 130.868 478.385 131.027C476.422 131.185 474.587 132.044 473.227 133.439C471.868 134.835 471.078 136.671 471.007 138.6V138.6Z" fill="#FFB6B6"/>
<path id="Vector_18" d="M560.16 205C560.16 205 560.143 203.392 551.246 203.454C540.202 203.53 509.785 188.115 512.445 173.597C511.182 174.152 509.765 174.282 508.417 173.968C507.069 173.654 505.867 172.912 505 171.861L519.808 158C524.454 158.305 524.502 161.328 524.104 163.064L536.004 167.661L567 184.974L561.527 202.364L560.16 205Z" fill="#F86D70"/>
<path id="Vector_19" d="M562.5 176C572.717 176 581 167.941 581 158C581 148.059 572.717 140 562.5 140C552.283 140 544 148.059 544 158C544 167.941 552.283 176 562.5 176Z" fill="#FFB7B7"/>
<path id="Vector_20" d="M538.729 241.751C537.727 243.071 537.215 244.69 537.279 246.338C537.344 247.986 537.981 249.561 539.084 250.801C539.093 251.326 539.173 251.833 539.927 253.715C540.025 253.897 540.141 254.07 540.273 254.231C540.297 254.271 540.324 254.309 540.353 254.345C541.147 255.358 542.251 256.092 543.502 256.437L576.72 265.582L581.112 266.79L581.884 267L582.31 261.084C583.298 260.276 583.96 259.147 584.176 257.899C584.392 256.652 584.149 255.369 583.49 254.284L582.878 253.286L586.444 243.826L586.79 242.889L595.885 218.743L595.894 217.133L595.911 215.47L596 203.865C596.004 200.208 595.149 196.599 593.502 193.322C591.855 190.046 589.46 187.19 586.507 184.979C583.816 182.951 580.714 181.519 577.412 180.778L577.341 180.77L573.748 176L559.171 177.435L557.964 179.877L556.5 182.818L545.933 189.023L542.322 197.302L539.882 202.903C536.103 205.581 533.849 209.02 533.201 213.116C531.817 221.815 537.993 230.523 538.729 231.521L538.915 241.506L538.729 241.751Z" fill="#F86D70"/>
<path id="Vector_21" d="M581.442 162C581.277 161.974 581.111 161.94 580.946 161.915C578.104 161.42 575.261 160.933 572.427 160.429L572.166 154.122L568.733 159.772C560.901 162.324 553.573 160.882 546.679 157.698C544.405 156.638 542.199 155.444 540.073 154.122C539.372 143.455 543.765 136.626 551.938 137.342C552.237 137.368 552.451 137.069 552.712 136.941C552.713 136.941 552.714 136.941 552.715 136.94C552.716 136.94 552.717 136.939 552.718 136.938C552.719 136.938 552.72 136.937 552.72 136.936C552.72 136.935 552.721 136.933 552.721 136.932C553.164 136.728 553.616 136.531 554.068 136.352C557.607 134.994 561.466 134.65 565.196 135.36C568.926 136.07 572.374 137.805 575.139 140.363C580.703 145.579 583.206 154.19 581.442 162Z" fill="#2F2E41"/>
<path id="Vector_22" d="M581 162C581 162 575.603 141.988 552.469 137.37C552.443 137.361 552.356 137.326 552.243 137.275C552.174 137.232 552.087 137.188 552 137.145C552.261 136.998 552.513 136.869 552.773 136.739C552.775 136.739 552.776 136.739 552.777 136.739C552.778 136.738 552.779 136.738 552.78 136.737C552.78 136.736 552.781 136.735 552.781 136.734C552.782 136.733 552.782 136.732 552.782 136.731C553.008 136.524 553.234 136.316 553.469 136.118L554.129 136.144C554.129 136.144 577.341 132.492 581 162Z" fill="#F86D70"/>
<path id="Vector_23" d="M590.884 282.274C590.462 282.635 589.949 282.872 589.402 282.961C588.854 283.05 588.292 282.986 587.778 282.777C586.756 282.343 585.847 281.679 585.124 280.835C582.173 277.74 580.065 273.94 579 269.798L579.984 268.047C579.598 265.888 579.961 263.662 581.014 261.738C582.068 259.814 583.747 258.308 585.774 257.471C586.927 256.981 588.205 256.87 589.426 257.153C590.031 257.303 590.584 257.614 591.027 258.053C591.47 258.492 591.786 259.042 591.942 259.646C592.322 261.519 590.761 263.21 589.182 264.285C586.429 266.153 583.248 267.291 579.935 267.593C583.987 269.877 587.49 273.021 590.197 276.803C590.823 277.592 591.285 278.499 591.555 279.469C591.685 279.955 591.691 280.467 591.574 280.956C591.457 281.446 591.22 281.899 590.884 282.274Z" fill="#3F3D56"/>
<path id="Vector_24" d="M442 263.489V264C440.883 262.711 439.744 261.432 438.615 260.154C438.142 259.62 437.668 259.087 437.194 258.553C435.186 256.307 433.166 254.069 431.136 251.839C429.094 249.615 427.052 247.392 424.987 245.18C424.491 244.646 423.994 244.113 423.487 243.579C423.08 243.131 422.639 242.714 422.167 242.334C421.69 241.943 421.143 241.645 420.553 241.456C419.875 241.27 419.16 241.263 418.478 241.434C417.699 241.611 416.954 241.889 416.199 242.123C415.42 242.378 414.653 242.623 413.875 242.867C412.318 243.368 410.772 243.868 409.215 244.368C409.196 244.376 409.176 244.38 409.156 244.379C409.136 244.379 409.116 244.375 409.097 244.368C409.078 244.36 409.061 244.348 409.047 244.334C409.033 244.32 409.022 244.303 409.014 244.285L409.012 244.279C409.003 244.258 408.999 244.236 409 244.213C409.001 244.19 409.007 244.168 409.018 244.148C409.029 244.127 409.044 244.11 409.063 244.096C409.081 244.082 409.102 244.073 409.125 244.068C409.509 243.946 409.903 243.824 410.298 243.701C411.866 243.19 413.423 242.69 414.991 242.19C415.77 241.934 416.548 241.689 417.327 241.445C418.049 241.174 418.811 241.024 419.583 241C420.843 241.089 422.025 241.636 422.9 242.534C423.385 242.979 423.825 243.446 424.265 243.924C424.784 244.479 425.303 245.035 425.822 245.591C427.909 247.837 429.981 250.09 432.038 252.35C434.103 254.618 436.149 256.889 438.176 259.164C438.322 259.331 438.469 259.498 438.615 259.665C439.755 260.932 440.872 262.21 442 263.489Z" fill="white"/>
<path id="Vector_25" d="M422.24 244.237C421.822 243.681 421.265 243.253 420.629 243L420 243.023C424.937 250.961 431.405 257.761 439 263C433.413 256.746 427.826 250.491 422.24 244.237Z" fill="white"/>
<path id="Vector_26" d="M489.989 303.278C489.822 307.802 487.841 312.075 484.483 315.158C481.124 318.241 476.663 319.882 472.079 319.719C464.506 319.455 455.468 319.323 445.659 319.525C413.625 320.201 373.381 324.552 349.173 340.201C346.13 342.172 342.535 343.145 338.899 342.982C338.631 342.967 338.371 342.951 338.104 342.928C334.334 342.588 330.783 341.035 327.995 338.507C314.659 326.464 284.074 311.879 214.064 310.854C213.772 310.854 213.489 310.838 213.205 310.823C210.938 310.682 208.721 310.101 206.68 309.114C204.64 308.127 202.817 306.753 201.316 305.07C199.814 303.387 198.663 301.429 197.928 299.307C197.194 297.185 196.89 294.941 197.035 292.703L203.916 184.926L204.947 168.772L206.758 140.513C206.94 137.667 208.214 134.996 210.319 133.044C212.425 131.091 215.205 130.003 218.094 130H218.165L259.874 130.241C277.446 131.026 291.999 133.235 303.535 136.869C307.476 138.075 311.31 139.598 314.998 141.422C320.035 143.832 324.562 147.168 328.334 151.251C330.684 153.859 333.889 155.567 337.387 156.076C337.93 156.156 338.477 156.205 339.025 156.224C342.251 156.355 345.435 155.456 348.102 153.66C375.349 135.641 430.874 134.274 461.538 135.051C465.826 135.149 469.924 136.82 473.032 139.737C476.141 142.654 478.038 146.609 478.354 150.831L479.598 166.907L480.834 182.937L487.966 275.578L489.95 301.351C489.999 301.992 490.012 302.635 489.989 303.278V303.278Z" fill="#F2F2F2"/>
<path id="Vector_27" d="M224.07 168.254C249.424 160.155 277.71 162.299 301.73 173.709C308.583 176.948 315.056 180.939 321.028 185.609C322.718 186.937 325.122 184.562 323.414 183.221C301.353 166.089 273.633 157.95 245.824 160.44C238.131 161.129 230.535 162.657 223.173 164.996C221.112 165.655 221.993 168.918 224.07 168.254H224.07Z" fill="#19D5BC"/>
<path id="Vector_28" d="M362.533 186.499C385.975 174.709 414.046 172.138 439.533 178.831C446.799 180.734 453.822 183.406 460.47 186.796C462.375 187.769 464.072 184.998 462.164 184.024C437.872 171.621 408.713 168.766 382.186 175.68C374.786 177.612 367.628 180.31 360.84 183.727C358.927 184.688 360.622 187.461 362.533 186.499Z" fill="#19D5BC"/>
<path id="Vector_29" d="M362.533 208.466C385.975 195.89 414.046 193.148 439.533 200.286C446.799 202.316 453.822 205.166 460.47 208.783C462.375 209.82 464.072 206.864 462.164 205.825C437.872 192.596 408.713 189.55 382.186 196.925C374.786 198.986 367.629 201.864 360.84 205.508C358.927 206.534 360.621 209.491 362.533 208.466L362.533 208.466Z" fill="#19D5BC"/>
<path id="Vector_30" d="M462.989 228.72C463.006 228.436 462.937 228.154 462.789 227.91C462.642 227.666 462.423 227.472 462.162 227.352C442.699 217.328 420.631 213.263 398.799 215.679C398.662 215.69 398.536 215.711 398.388 215.722H398.383C398.248 215.734 398.115 215.754 397.983 215.781C384.997 217.251 372.4 221.069 360.827 227.044C360.575 227.192 360.366 227.402 360.221 227.653C360.076 227.905 360 228.189 360 228.477V269.528C360.004 269.781 360.067 270.029 360.183 270.255C360.299 270.48 360.466 270.677 360.671 270.829C360.875 270.982 361.113 271.086 361.365 271.135C361.617 271.185 361.877 271.177 362.125 271.112C362.64 270.967 363.155 270.827 363.681 270.692C375.381 267.577 387.392 265.729 399.5 265.181C399.757 265.171 400.015 265.16 400.283 265.149C410.145 264.733 420.025 265.082 429.831 266.194C430.037 266.206 430.241 266.227 430.445 266.259C430.948 266.313 431.463 266.372 431.967 266.436C432.17 266.458 432.362 266.48 432.548 266.512C434.508 266.754 436.453 267.029 438.403 267.325C441.218 267.767 444.033 268.259 446.848 268.801C447.023 268.834 447.204 268.877 447.385 268.909C451.903 269.792 456.4 270.816 460.875 271.947C461.124 272.01 461.384 272.017 461.636 271.967C461.889 271.917 462.126 271.811 462.331 271.657C462.535 271.504 462.702 271.307 462.818 271.081C462.934 270.855 462.996 270.606 463 270.353V228.784C463.001 228.762 462.998 228.74 462.989 228.72V228.72Z" fill="#3F3D56"/>
<path id="Vector_31" d="M401.682 218.531C400.421 217.963 398.975 217.846 397.626 218.203C397.03 218.409 396.484 218.721 396.02 219.123C395.556 219.524 395.184 220.006 394.924 220.541C394.457 221.567 394.157 222.65 394.035 223.757C393.964 224.192 393.959 224.741 394.435 224.944C394.607 225.002 394.794 225.015 394.974 224.982C395.154 224.95 395.321 224.872 395.456 224.758C395.702 224.536 395.904 224.276 396.055 223.99C396.88 222.808 398.016 221.837 399.358 221.166C400.699 220.495 402.202 220.146 403.729 220.151L405 220.617C404 219.788 402.884 219.087 401.682 218.531V218.531Z" fill="#FF6582"/>
<path id="Vector_32" d="M415.472 227.468C414.508 226.078 413.366 224.594 411.577 224.141C409.505 223.615 407.377 224.659 405.572 225.689C400.204 228.75 395.006 232.088 390 235.689L390.005 235.743L401.626 235.045C404.424 234.876 407.319 234.685 409.792 233.531C410.68 232.986 411.672 232.624 412.708 232.468C413.351 232.502 413.981 232.66 414.56 232.934C415.14 233.207 415.659 233.591 416.087 234.062C421.442 239.032 422.992 246.633 429 251C425.177 242.796 420.651 234.924 415.472 227.468V227.468Z" fill="#19D5BC"/>
<path id="Vector_33" d="M401 264.97C400.722 264.98 400.456 264.99 400.189 265C398.255 264.397 396.274 263.865 394.271 263.402C392.973 263.101 391.653 262.83 390.332 262.598C388.838 262.317 387.332 262.096 385.827 261.905C382.96 261.543 380.07 261.332 377.174 261.272C377.152 261.274 377.13 261.272 377.109 261.266C377.088 261.26 377.069 261.251 377.052 261.238C377.036 261.225 377.023 261.21 377.014 261.192C377.005 261.175 377 261.156 377 261.136C377 261.117 377.005 261.098 377.014 261.081C377.023 261.063 377.036 261.048 377.052 261.035C377.069 261.022 377.088 261.012 377.109 261.007C377.13 261.001 377.152 260.999 377.174 261.001C377.545 261.001 377.915 261.011 378.275 261.031C381.177 261.124 384.07 261.369 386.938 261.765C388.433 261.975 389.927 262.227 391.41 262.508C392.753 262.769 394.097 263.061 395.417 263.382C397.305 263.844 399.166 264.374 401 264.97Z" fill="#19D5BC"/>
<path id="Vector_34" d="M433 267C432.81 266.965 432.62 266.942 432.419 266.919C431.649 266.262 430.867 265.639 430.052 265.027C429.036 264.266 427.986 263.551 426.914 262.882C424.54 261.393 422.061 260.09 419.499 258.983C415.448 257.24 411.254 255.874 406.969 254.899C402.08 253.793 397.132 252.992 392.15 252.5C387.169 251.969 382.166 251.646 377.163 251.323C376.951 251.312 376.94 250.989 377.163 251C377.789 251.046 378.414 251.081 379.051 251.127C384.109 251.45 389.168 251.819 394.193 252.408C399.176 252.959 404.119 253.846 408.99 255.061C413.149 256.119 417.207 257.559 421.118 259.364C423.367 260.407 425.546 261.606 427.64 262.951C428.968 263.816 430.253 264.739 431.481 265.72C431.995 266.135 432.509 266.55 433 267Z" fill="white"/>
<path id="Vector_35" d="M431 266C430.794 265.968 430.587 265.946 430.379 265.934C430.142 265.747 429.893 265.57 429.645 265.394C427.907 264.18 426.093 263.073 424.214 262.079C422.508 261.174 420.755 260.354 418.964 259.622C414.87 257.954 410.63 256.649 406.296 255.723C401.353 254.667 396.35 253.902 391.313 253.432C386.277 252.925 381.219 252.617 376.161 252.309C375.946 252.287 375.946 251.989 376.161 252C376.804 252.044 377.437 252.077 378.069 252.121C383.184 252.43 388.298 252.782 393.379 253.344C398.417 253.871 403.414 254.717 408.339 255.878C412.544 256.886 416.648 258.261 420.601 259.986C422.091 260.647 423.548 261.363 424.971 262.145C427.08 263.275 429.096 264.564 431 266Z" fill="#19D5BC"/>
<path id="Vector_36" d="M448 269C447.821 268.967 447.641 268.923 447.461 268.891C447.259 268.683 447.068 268.464 446.878 268.245C445.913 267.161 444.959 266.067 444.016 264.962C440.302 260.65 436.778 256.207 433.456 251.676C430.605 247.802 427.901 243.851 425.342 239.824C424.119 237.92 422.94 235.993 421.785 234.045C420.887 232.535 420.011 231.021 419.159 229.504C418.912 229.066 418.676 228.628 418.44 228.19C417.89 227.162 417.34 226.122 416.757 225.104C416.123 223.857 415.191 222.777 414.041 221.952C413.466 221.577 412.801 221.355 412.111 221.307C411.138 221.31 410.181 221.551 409.328 222.007C403.049 224.858 397.126 228.402 391.675 232.568C386.351 236.606 381.536 241.246 377.333 246.39C377.198 246.543 376.906 246.401 377.03 246.237C377.535 245.624 378.051 245.011 378.567 244.409C382.607 239.749 387.157 235.533 392.135 231.835C392.146 231.824 392.169 231.813 392.18 231.802C392.618 231.463 393.055 231.134 393.504 230.817C396.283 228.821 399.176 226.98 402.168 225.301C403.694 224.437 405.254 223.616 406.848 222.839C407.24 222.642 407.644 222.445 408.048 222.259C408.452 222.062 408.856 221.876 409.26 221.69C410.06 221.292 410.935 221.058 411.83 221C414.95 220.957 416.555 224.021 417.666 226.089C418.014 226.735 418.373 227.381 418.721 228.026C420.068 230.467 421.47 232.896 422.929 235.293C423.816 236.781 424.736 238.259 425.668 239.725C427.003 241.816 428.372 243.884 429.797 245.941C429.797 245.943 429.798 245.944 429.798 245.946C429.799 245.947 429.799 245.948 429.8 245.949C429.801 245.95 429.803 245.951 429.804 245.952C429.805 245.952 429.807 245.952 429.808 245.952H429.809C431.458 248.382 433.175 250.768 434.948 253.142C437.99 257.203 441.177 261.172 444.51 265.049C445.655 266.384 446.818 267.701 448 269Z" fill="white"/>
<path id="Vector_37" d="M408 220.327L407.681 220.463C406.949 219.265 405.923 218.261 404.695 217.54C403.467 216.82 402.074 216.404 400.64 216.331C395.913 216.005 391.76 219.059 391.383 223.138C391.23 224.817 391.731 226.491 392.789 227.83L392.492 228C391.391 226.606 390.869 224.862 391.028 223.113C391.421 218.866 395.746 215.686 400.669 216.025C402.162 216.101 403.612 216.534 404.891 217.284C406.17 218.035 407.238 219.08 408 220.327V220.327Z" fill="#FF6582"/>
<path id="Vector_38" d="M385.395 228.741C384.214 228.176 382.927 227.928 381.641 228.018C380.355 228.108 379.107 228.533 378 229.259C382.041 229.94 386.046 230.855 390 232C388.363 231.061 387.083 229.59 385.395 228.741Z" fill="#19D5BC"/>
<path id="Vector_39" d="M377.951 229L377 230C377.322 229.65 377.656 229.322 378 229.011L377.951 229Z" fill="white"/>
<path id="Vector_40" d="M390.712 231.228C390.533 231.043 390.355 230.858 390.175 230.673C388.791 229.11 387.125 227.844 385.271 226.948C384.327 226.535 383.315 226.318 382.291 226.309C381.233 226.335 380.187 226.546 379.196 226.933C378.73 227.105 378.275 227.3 377.826 227.508C377.313 227.747 376.809 228.001 376.308 228.258C375.367 228.739 374.438 229.241 373.522 229.765C371.698 230.806 369.931 231.928 368.222 233.128C367.336 233.751 366.468 234.394 365.618 235.058C364.828 235.674 364.054 236.307 363.296 236.957C363.134 237.095 362.891 236.871 363.054 236.733C363.253 236.561 363.456 236.39 363.658 236.221C364.229 235.744 364.809 235.276 365.398 234.817C366.473 233.979 367.575 233.173 368.705 232.4C370.462 231.197 372.28 230.075 374.159 229.035C375.098 228.516 376.049 228.019 377.014 227.543C377.305 227.399 377.6 227.259 377.898 227.126C378.578 226.809 379.281 226.545 379.999 226.336C381.029 226.029 382.107 225.931 383.172 226.047C384.193 226.183 385.183 226.499 386.1 226.984C387.918 228.041 389.557 229.399 390.955 231.003C391.101 231.155 390.86 231.38 390.712 231.228Z" fill="white"/>
<path id="Vector_41" d="M224.07 189.937C249.424 182.149 277.71 184.211 301.73 195.182C308.583 198.296 315.056 202.134 321.028 206.625C322.718 207.901 325.122 205.618 323.414 204.327C301.353 187.854 273.633 180.029 245.824 182.423C238.131 183.086 230.535 184.555 223.173 186.804C221.112 187.437 221.993 190.575 224.07 189.937L224.07 189.937Z" fill="#19D5BC"/>
<path id="Vector_42" d="M224.07 211.937C249.424 204.149 277.71 206.211 301.73 217.182C308.583 220.296 315.056 224.134 321.028 228.625C322.718 229.901 325.122 227.618 323.414 226.327C301.353 209.854 273.633 202.029 245.824 204.423C238.131 205.086 230.535 206.555 223.173 208.804C221.112 209.437 221.993 212.575 224.07 211.937L224.07 211.937Z" fill="#19D5BC"/>
<path id="Vector_43" d="M224.07 233.937C249.424 226.149 277.71 228.211 301.73 239.182C308.583 242.296 315.056 246.134 321.028 250.625C322.718 251.901 325.122 249.618 323.414 248.327C301.353 231.854 273.633 224.029 245.824 226.423C238.131 227.086 230.535 228.555 223.173 230.804C221.112 231.437 221.993 234.575 224.07 233.937L224.07 233.937Z" fill="#19D5BC"/>
<path id="Vector_44" d="M224.07 255.937C249.424 248.149 277.71 250.211 301.73 261.182C308.583 264.296 315.056 268.134 321.028 272.625C322.718 273.901 325.122 271.618 323.414 270.327C301.353 253.854 273.633 246.029 245.824 248.423C238.131 249.086 230.535 250.555 223.173 252.804C221.112 253.437 221.993 256.575 224.07 255.937L224.07 255.937Z" fill="#19D5BC"/>
<path id="Vector_45" d="M224.07 277.937C249.424 270.149 277.71 272.211 301.73 283.182C308.583 286.296 315.056 290.134 321.028 294.625C322.718 295.901 325.122 293.618 323.414 292.327C301.353 275.854 273.633 268.029 245.824 270.423C238.131 271.086 230.535 272.555 223.173 274.804C221.112 275.437 221.993 278.575 224.07 277.937H224.07Z" fill="#19D5BC"/>
<path id="Vector_46" d="M315 141.586V194.752C315 195.808 313.217 196.693 310.815 196.935C310.794 196.934 310.774 196.937 310.754 196.943C310.354 196.975 309.931 196.998 309.5 196.998C308.175 197.023 306.857 196.801 305.609 196.341C305.496 196.294 305.383 196.239 305.269 196.192C305.163 196.129 305.05 196.075 304.944 196.012C304.348 195.644 304 195.214 304 194.752V137C307.781 138.215 311.46 139.749 315 141.586V141.586Z" fill="#19D5BC"/>
<path id="Vector_47" d="M339 154H337V341H339V154Z" fill="#19D5BC"/>
<path id="Vector_48" d="M495.899 282.963C497.073 282.859 498.21 282.508 499.228 281.934C500.247 281.361 501.122 280.579 501.794 279.643C502.465 278.707 502.916 277.64 503.115 276.518C503.313 275.396 503.254 274.245 502.942 273.148L537.31 257.657L558 225.34L541.737 219L527.779 245.042L492.451 267.774C490.575 268.402 489.004 269.672 488.034 271.345C487.064 273.017 486.763 274.975 487.188 276.847C487.613 278.719 488.735 280.376 490.34 281.503C491.946 282.63 493.924 283.15 495.899 282.963V282.963Z" fill="#FFB6B6"/>
<path id="Vector_49" d="M572.355 190.985C572.355 190.985 576.302 192.276 571.969 199.953C568.501 206.099 551.606 241.499 544.71 248.45C545.436 249.615 545.754 250.99 545.615 252.357C545.475 253.724 544.886 255.006 543.94 256L528.021 243.334C527.717 238.727 530.758 238.27 532.559 238.425L536.222 225.411L548.995 193.306L569.518 190L572.355 190.985Z" fill="#F86D70"/>
<path id="Vector_50" d="M589.716 136.479C590.475 133.432 595.977 131.183 586.552 126.929C584.265 125.897 584.36 122.342 582.425 120.75C580.49 119.158 577.656 118.42 575.408 119.533C573.4 120.526 572.268 122.775 572.027 124.991C571.911 127.222 572.17 129.455 572.794 131.601L572.611 131.866C576.344 134.705 580.078 137.543 583.811 140.381C585.183 141.424 586.976 142.516 588.514 141.734C590.254 140.848 589.247 138.365 589.716 136.479Z" fill="#2F2E41"/>
</g>
<defs>
<clipPath id="clip0_1_2">
<rect width="669.175" height="511.628" fill="white"/>
</clipPath>
</defs>
</svg>
